<svg width="53" height="53" viewBox="0 0 53 53" fill="none" xmlns="http://www.w3.org/2000/svg">
    <rect width="53" height="53" fill="#1F2526" fill-opacity="0.3"/>
    <g clip-path="url(#clip0)">
        <path fill-rule="evenodd" clip-rule="evenodd" d="M26 15.5C23.2152 15.5 20.5445 16.6062 18.5754 18.5754C16.6062 20.5445 15.5 23.2152 15.5 26C15.5 28.7848 16.6062 31.4555 18.5754 33.4246C20.5445 35.3938 23.2152 36.5 26 36.5C28.7848 36.5 31.4555 35.3938 33.4246 33.4246C35.3938 31.4555 36.5 28.7848 36.5 26C36.5 23.2152 35.3938 20.5445 33.4246 18.5754C31.4555 16.6062 28.7848 15.5 26 15.5ZM26 14C22.8174 14 19.7652 15.2643 17.5147 17.5147C15.2643 19.7652 14 22.8174 14 26C14 29.1826 15.2643 32.2348 17.5147 34.4853C19.7652 36.7357 22.8174 38 26 38C29.1826 38 32.2348 36.7357 34.4853 34.4853C36.7357 32.2348 38 29.1826 38 26C38 22.8174 36.7357 19.7652 34.4853 17.5147C32.2348 15.2643 29.1826 14 26 14Z" fill="white"/>
        <path fill-rule="evenodd" clip-rule="evenodd" d="M25.4689 20.969C25.399 21.0387 25.3436 21.1215 25.3058 21.2126C25.268 21.3037 25.2485 21.4014 25.2485 21.5C25.2485 21.5987 25.268 21.6964 25.3058 21.7875C25.3436 21.8786 25.399 21.9614 25.4689 22.031L29.4394 26L25.4689 29.969C25.3991 30.0388 25.3438 30.1215 25.3061 30.2127C25.2684 30.3038 25.2489 30.4014 25.2489 30.5C25.2489 30.5986 25.2684 30.6963 25.3061 30.7874C25.3438 30.8785 25.3991 30.9613 25.4689 31.031C25.5386 31.1008 25.6214 31.1561 25.7125 31.1938C25.8036 31.2316 25.9013 31.251 25.9999 31.251C26.0985 31.251 26.1961 31.2316 26.2873 31.1938C26.3784 31.1561 26.4611 31.1008 26.5309 31.031L31.0309 26.531C31.1007 26.4614 31.1561 26.3786 31.1939 26.2875C31.2318 26.1964 31.2512 26.0987 31.2512 26C31.2512 25.9014 31.2318 25.8037 31.1939 25.7126C31.1561 25.6215 31.1007 25.5387 31.0309 25.469L26.5309 20.969C26.4612 20.8992 26.3784 20.8438 26.2873 20.806C26.1962 20.7681 26.0985 20.7487 25.9999 20.7487C25.9012 20.7487 25.8035 20.7681 25.7124 20.806C25.6213 20.8438 25.5385 20.8992 25.4689 20.969Z" fill="white"/>
        <path fill-rule="evenodd" clip-rule="evenodd" d="M20.75 26C20.75 26.1989 20.829 26.3897 20.9697 26.5303C21.1103 26.671 21.3011 26.75 21.5 26.75L29 26.75C29.1989 26.75 29.3897 26.671 29.5303 26.5303C29.671 26.3897 29.75 26.1989 29.75 26C29.75 25.8011 29.671 25.6103 29.5303 25.4697C29.3897 25.329 29.1989 25.25 29 25.25L21.5 25.25C21.3011 25.25 21.1103 25.329 20.9697 25.4697C20.829 25.6103 20.75 25.8011 20.75 26Z" fill="white"/>
    </g>
    <defs>
        <clipPath id="clip0">
            <rect width="24" height="24" fill="white" transform="translate(38 38) rotate(180)"/>
        </clipPath>
    </defs>
</svg>
