<svg width="53" height="53" viewBox="0 0 53 53" fill="none" xmlns="http://www.w3.org/2000/svg">
    <rect x="53" y="53" width="53" height="53" transform="rotate(-180 53 53)" fill="#1F2526" fill-opacity="0.3"/>
    <path fill-rule="evenodd" clip-rule="evenodd" d="M27 37.5C29.7848 37.5 32.4555 36.3938 34.4246 34.4246C36.3938 32.4555 37.5 29.7848 37.5 27C37.5 24.2152 36.3938 21.5445 34.4246 19.5754C32.4555 17.6062 29.7848 16.5 27 16.5C24.2152 16.5 21.5445 17.6062 19.5754 19.5754C17.6062 21.5445 16.5 24.2152 16.5 27C16.5 29.7848 17.6062 32.4555 19.5754 34.4246C21.5445 36.3938 24.2152 37.5 27 37.5ZM27 39C30.1826 39 33.2348 37.7357 35.4853 35.4853C37.7357 33.2348 39 30.1826 39 27C39 23.8174 37.7357 20.7652 35.4853 18.5147C33.2348 16.2643 30.1826 15 27 15C23.8174 15 20.7652 16.2643 18.5147 18.5147C16.2643 20.7652 15 23.8174 15 27C15 30.1826 16.2643 33.2348 18.5147 35.4853C20.7652 37.7357 23.8174 39 27 39Z" fill="white"/>
    <path fill-rule="evenodd" clip-rule="evenodd" d="M27.5311 32.031C27.601 31.9613 27.6564 31.8785 27.6942 31.7874C27.732 31.6963 27.7515 31.5986 27.7515 31.5C27.7515 31.4013 27.732 31.3036 27.6942 31.2125C27.6564 31.1214 27.601 31.0386 27.5311 30.969L23.5606 27L27.5311 23.031C27.6009 22.9612 27.6562 22.8785 27.6939 22.7873C27.7316 22.6962 27.7511 22.5986 27.7511 22.5C27.7511 22.4014 27.7316 22.3037 27.6939 22.2126C27.6562 22.1215 27.6009 22.0387 27.5311 21.969C27.4614 21.8992 27.3786 21.8439 27.2875 21.8062C27.1964 21.7684 27.0987 21.749 27.0001 21.749C26.9015 21.749 26.8039 21.7684 26.7127 21.8062C26.6216 21.8439 26.5389 21.8992 26.4691 21.969L21.9691 26.469C21.8993 26.5386 21.8439 26.6214 21.8061 26.7125C21.7682 26.8036 21.7488 26.9013 21.7488 27C21.7488 27.0986 21.7682 27.1963 21.8061 27.2874C21.8439 27.3785 21.8993 27.4613 21.9691 27.531L26.4691 32.031C26.5388 32.1008 26.6216 32.1562 26.7127 32.194C26.8038 32.2319 26.9015 32.2513 27.0001 32.2513C27.0988 32.2513 27.1965 32.2319 27.2876 32.194C27.3787 32.1562 27.4615 32.1008 27.5311 32.031Z" fill="white"/>
    <path fill-rule="evenodd" clip-rule="evenodd" d="M32.25 27C32.25 26.8011 32.171 26.6103 32.0303 26.4697C31.8897 26.329 31.6989 26.25 31.5 26.25H24C23.8011 26.25 23.6103 26.329 23.4697 26.4697C23.329 26.6103 23.25 26.8011 23.25 27C23.25 27.1989 23.329 27.3897 23.4697 27.5303C23.6103 27.671 23.8011 27.75 24 27.75H31.5C31.6989 27.75 31.8897 27.671 32.0303 27.5303C32.171 27.3897 32.25 27.1989 32.25 27Z" fill="white"/>
</svg>
