<svg width="28" height="28" viewBox="0 0 28 28" fill="none" xmlns="http://www.w3.org/2000/svg">
<circle cx="14" cy="14" r="13.5" stroke="#C4C4C4"/>
<mask id="path-2-inside-1" fill="white">
<path d="M13.3438 8.96875H9.1875C9.06719 8.96875 8.96875 9.06719 8.96875 9.1875V13.3438C8.96875 13.4641 9.06719 13.5625 9.1875 13.5625H13.3438C13.4641 13.5625 13.5625 13.4641 13.5625 13.3438V9.1875C13.5625 9.06719 13.4641 8.96875 13.3438 8.96875ZM12.6328 12.6328H9.89844V9.89844H12.6328V12.6328ZM18.8125 8.96875H14.6562C14.5359 8.96875 14.4375 9.06719 14.4375 9.1875V13.3438C14.4375 13.4641 14.5359 13.5625 14.6562 13.5625H18.8125C18.9328 13.5625 19.0312 13.4641 19.0312 13.3438V9.1875C19.0312 9.06719 18.9328 8.96875 18.8125 8.96875ZM18.1016 12.6328H15.3672V9.89844H18.1016V12.6328ZM18.8125 14.4375H14.6562C14.5359 14.4375 14.4375 14.5359 14.4375 14.6562V18.8125C14.4375 18.9328 14.5359 19.0312 14.6562 19.0312H18.8125C18.9328 19.0312 19.0312 18.9328 19.0312 18.8125V14.6562C19.0312 14.5359 18.9328 14.4375 18.8125 14.4375ZM18.1016 18.1016H15.3672V15.3672H18.1016V18.1016ZM12.7969 16.7344H11.0469V14.9844C11.0469 14.9242 10.9977 14.875 10.9375 14.875H10.2812C10.2211 14.875 10.1719 14.9242 10.1719 14.9844V16.7344H8.42188C8.36172 16.7344 8.3125 16.7836 8.3125 16.8438V17.5C8.3125 17.5602 8.36172 17.6094 8.42188 17.6094H10.1719V19.3594C10.1719 19.4195 10.2211 19.4688 10.2812 19.4688H10.9375C10.9977 19.4688 11.0469 19.4195 11.0469 19.3594V17.6094H12.7969C12.857 17.6094 12.9062 17.5602 12.9062 17.5V16.8438C12.9062 16.7836 12.857 16.7344 12.7969 16.7344Z"/>
</mask>
<path d="M12.6328 12.6328V13.6328H13.6328V12.6328H12.6328ZM9.89844 12.6328H8.89844V13.6328H9.89844V12.6328ZM9.89844 9.89844V8.89844H8.89844V9.89844H9.89844ZM12.6328 9.89844H13.6328V8.89844H12.6328V9.89844ZM18.1016 12.6328V13.6328H19.1016V12.6328H18.1016ZM15.3672 12.6328H14.3672V13.6328H15.3672V12.6328ZM15.3672 9.89844V8.89844H14.3672V9.89844H15.3672ZM18.1016 9.89844H19.1016V8.89844H18.1016V9.89844ZM18.1016 18.1016V19.1016H19.1016V18.1016H18.1016ZM15.3672 18.1016H14.3672V19.1016H15.3672V18.1016ZM15.3672 15.3672V14.3672H14.3672V15.3672H15.3672ZM18.1016 15.3672H19.1016V14.3672H18.1016V15.3672ZM11.0469 16.7344H10.0469V17.7344H11.0469V16.7344ZM10.1719 16.7344V17.7344H11.1719V16.7344H10.1719ZM10.1719 17.6094H11.1719V16.6094H10.1719V17.6094ZM11.0469 17.6094V16.6094H10.0469V17.6094H11.0469ZM13.3438 7.96875H9.1875V9.96875H13.3438V7.96875ZM9.1875 7.96875C8.5149 7.96875 7.96875 8.5149 7.96875 9.1875H9.96875C9.96875 9.61947 9.61947 9.96875 9.1875 9.96875V7.96875ZM7.96875 9.1875V13.3438H9.96875V9.1875H7.96875ZM7.96875 13.3438C7.96875 14.0163 8.5149 14.5625 9.1875 14.5625V12.5625C9.61947 12.5625 9.96875 12.9118 9.96875 13.3438H7.96875ZM9.1875 14.5625H13.3438V12.5625H9.1875V14.5625ZM13.3438 14.5625C14.0163 14.5625 14.5625 14.0163 14.5625 13.3438H12.5625C12.5625 12.9118 12.9118 12.5625 13.3438 12.5625V14.5625ZM14.5625 13.3438V9.1875H12.5625V13.3438H14.5625ZM14.5625 9.1875C14.5625 8.5149 14.0163 7.96875 13.3438 7.96875V9.96875C12.9118 9.96875 12.5625 9.61947 12.5625 9.1875H14.5625ZM12.6328 11.6328H9.89844V13.6328H12.6328V11.6328ZM10.8984 12.6328V9.89844H8.89844V12.6328H10.8984ZM9.89844 10.8984H12.6328V8.89844H9.89844V10.8984ZM11.6328 9.89844V12.6328H13.6328V9.89844H11.6328ZM18.8125 7.96875H14.6562V9.96875H18.8125V7.96875ZM14.6562 7.96875C13.9837 7.96875 13.4375 8.5149 13.4375 9.1875H15.4375C15.4375 9.61947 15.0882 9.96875 14.6562 9.96875V7.96875ZM13.4375 9.1875V13.3438H15.4375V9.1875H13.4375ZM13.4375 13.3438C13.4375 14.0163 13.9837 14.5625 14.6562 14.5625V12.5625C15.0882 12.5625 15.4375 12.9118 15.4375 13.3438H13.4375ZM14.6562 14.5625H18.8125V12.5625H14.6562V14.5625ZM18.8125 14.5625C19.4851 14.5625 20.0312 14.0163 20.0312 13.3438H18.0312C18.0312 12.9118 18.3805 12.5625 18.8125 12.5625V14.5625ZM20.0312 13.3438V9.1875H18.0312V13.3438H20.0312ZM20.0312 9.1875C20.0312 8.5149 19.4851 7.96875 18.8125 7.96875V9.96875C18.3805 9.96875 18.0312 9.61947 18.0312 9.1875H20.0312ZM18.1016 11.6328H15.3672V13.6328H18.1016V11.6328ZM16.3672 12.6328V9.89844H14.3672V12.6328H16.3672ZM15.3672 10.8984H18.1016V8.89844H15.3672V10.8984ZM17.1016 9.89844V12.6328H19.1016V9.89844H17.1016ZM18.8125 13.4375H14.6562V15.4375H18.8125V13.4375ZM14.6562 13.4375C13.9837 13.4375 13.4375 13.9837 13.4375 14.6562H15.4375C15.4375 15.0882 15.0882 15.4375 14.6562 15.4375V13.4375ZM13.4375 14.6562V18.8125H15.4375V14.6562H13.4375ZM13.4375 18.8125C13.4375 19.4851 13.9837 20.0312 14.6562 20.0312V18.0312C15.0882 18.0312 15.4375 18.3805 15.4375 18.8125H13.4375ZM14.6562 20.0312H18.8125V18.0312H14.6562V20.0312ZM18.8125 20.0312C19.4851 20.0312 20.0312 19.4851 20.0312 18.8125H18.0312C18.0312 18.3805 18.3805 18.0312 18.8125 18.0312V20.0312ZM20.0312 18.8125V14.6562H18.0312V18.8125H20.0312ZM20.0312 14.6562C20.0312 13.9837 19.4851 13.4375 18.8125 13.4375V15.4375C18.3805 15.4375 18.0312 15.0882 18.0312 14.6562H20.0312ZM18.1016 17.1016H15.3672V19.1016H18.1016V17.1016ZM16.3672 18.1016V15.3672H14.3672V18.1016H16.3672ZM15.3672 16.3672H18.1016V14.3672H15.3672V16.3672ZM17.1016 15.3672V18.1016H19.1016V15.3672H17.1016ZM12.7969 15.7344H11.0469V17.7344H12.7969V15.7344ZM12.0469 16.7344V14.9844H10.0469V16.7344H12.0469ZM12.0469 14.9844C12.0469 14.3719 11.5499 13.875 10.9375 13.875V15.875C10.4454 15.875 10.0469 15.4765 10.0469 14.9844H12.0469ZM10.9375 13.875H10.2812V15.875H10.9375V13.875ZM10.2812 13.875C9.66881 13.875 9.17188 14.3719 9.17188 14.9844H11.1719C11.1719 15.4765 10.7734 15.875 10.2812 15.875V13.875ZM9.17188 14.9844V16.7344H11.1719V14.9844H9.17188ZM10.1719 15.7344H8.42188V17.7344H10.1719V15.7344ZM8.42188 15.7344C7.80943 15.7344 7.3125 16.2313 7.3125 16.8438H9.3125C9.3125 17.3359 8.914 17.7344 8.42188 17.7344V15.7344ZM7.3125 16.8438V17.5H9.3125V16.8438H7.3125ZM7.3125 17.5C7.3125 18.1124 7.80943 18.6094 8.42188 18.6094V16.6094C8.914 16.6094 9.3125 17.0079 9.3125 17.5H7.3125ZM8.42188 18.6094H10.1719V16.6094H8.42188V18.6094ZM9.17188 17.6094V19.3594H11.1719V17.6094H9.17188ZM9.17188 19.3594C9.17188 19.9718 9.66881 20.4688 10.2812 20.4688V18.4688C10.7734 18.4688 11.1719 18.8672 11.1719 19.3594H9.17188ZM10.2812 20.4688H10.9375V18.4688H10.2812V20.4688ZM10.9375 20.4688C11.5499 20.4688 12.0469 19.9718 12.0469 19.3594H10.0469C10.0469 18.8672 10.4454 18.4688 10.9375 18.4688V20.4688ZM12.0469 19.3594V17.6094H10.0469V19.3594H12.0469ZM11.0469 18.6094H12.7969V16.6094H11.0469V18.6094ZM12.7969 18.6094C13.4093 18.6094 13.9062 18.1124 13.9062 17.5H11.9062C11.9062 17.0079 12.3047 16.6094 12.7969 16.6094V18.6094ZM13.9062 17.5V16.8438H11.9062V17.5H13.9062ZM13.9062 16.8438C13.9062 16.2313 13.4093 15.7344 12.7969 15.7344V17.7344C12.3047 17.7344 11.9062 17.3359 11.9062 16.8438H13.9062Z" fill="#C4C4C4" mask="url(#path-2-inside-1)"/>
</svg>
