<svg width="26" height="26" viewBox="0 0 26 26" fill="none" xmlns="http://www.w3.org/2000/svg">
    <path d="M5.48908 17.4593L5.13553 17.1057L4.78198 17.4593L5.13553 17.8128L5.48908 17.4593ZM5.48919 17.4592L5.84274 17.8127L6.19629 17.4592L5.84274 17.1056L5.48919 17.4592ZM12.9706 24.9408L12.6171 25.2944L12.9706 25.6479L13.3242 25.2944L12.9706 24.9408ZM12.9707 24.9407L13.3243 24.5871L12.9707 24.2336L12.6172 24.5871L12.9707 24.9407ZM12.9708 24.9408L12.6173 25.2943L12.9708 25.6479L13.3244 25.2943L12.9708 24.9408ZM20.4523 17.4593L20.8059 17.8128L21.1594 17.4593L20.8059 17.1057L20.4523 17.4593ZM20.4522 17.4592L20.0987 17.1056L19.7451 17.4592L20.0987 17.8127L20.4522 17.4592ZM13.7188 9.22959L14.0723 9.58314L13.7188 9.22959ZM12.9707 9.97764L12.6172 10.3312L12.9707 10.6847L13.3243 10.3312L12.9707 9.97764ZM5.84264 17.8128L5.84274 17.8127L5.13563 17.1056L5.13553 17.1057L5.84264 17.8128ZM13.3242 24.5872L5.84264 17.1057L5.13553 17.8128L12.6171 25.2944L13.3242 24.5872ZM12.6172 24.5871L12.6171 24.5872L13.3242 25.2944L13.3243 25.2942L12.6172 24.5871ZM13.3244 24.5872L13.3243 24.5871L12.6172 25.2942L12.6173 25.2943L13.3244 24.5872ZM20.0988 17.1057L12.6173 24.5872L13.3244 25.2943L20.8059 17.8128L20.0988 17.1057ZM20.0987 17.8127L20.0988 17.8128L20.8059 17.1057L20.8058 17.1056L20.0987 17.8127ZM20.8467 16.3576L20.0987 17.1056L20.8058 17.8127L21.5538 17.0647L20.8467 16.3576ZM20.8467 9.58314C22.7174 11.4538 22.7174 14.4869 20.8467 16.3576L21.5538 17.0647C23.8151 14.8034 23.8151 11.1373 21.5538 8.87604L20.8467 9.58314ZM14.0723 9.58314C15.943 7.71244 18.976 7.71244 20.8467 9.58314L21.5538 8.87604C19.2926 6.61481 15.6264 6.61481 13.3652 8.87604L14.0723 9.58314ZM13.3243 10.3312L14.0723 9.58314L13.3652 8.87604L12.6172 9.62408L13.3243 10.3312ZM11.8691 9.58313L12.6172 10.3312L13.3243 9.62408L12.5762 8.87602L11.8691 9.58313ZM5.09468 9.58313C6.96538 7.71242 9.9984 7.71242 11.8691 9.58313L12.5762 8.87602C10.315 6.61479 6.6488 6.61479 4.38757 8.87602L5.09468 9.58313ZM5.09468 16.3576C3.22397 14.4868 3.22398 11.4538 5.09468 9.58313L4.38757 8.87602C2.12634 11.1373 2.12634 14.8034 4.38757 17.0647L5.09468 16.3576ZM5.84274 17.1056L5.09468 16.3576L4.38757 17.0647L5.13563 17.8127L5.84274 17.1056Z" fill="#1F2526"/>
</svg>
