<svg width="30" height="30" fill="none" xmlns="http://www.w3.org/2000/svg"><path d="M15 8.991A6 6 0 008.991 15 6 6 0 0015 21.009 6 6 0 0021.009 15 6 6 0 0015 8.991zm0 9.914A3.914 3.914 0 0111.095 15 3.914 3.914 0 0115 11.095 3.914 3.914 0 0118.905 15 3.914 3.914 0 0115 18.905zm6.255-11.56c-.776 0-1.403.627-1.403 1.403s.627 1.403 1.403 1.403a1.4 1.4 0 001.297-1.94 1.402 1.402 0 00-1.297-.866zM26.713 15c0-1.617.015-3.22-.076-4.834-.091-1.875-.519-3.539-1.89-4.91-1.374-1.374-3.035-1.799-4.91-1.89-1.617-.09-3.22-.076-4.834-.076-1.617 0-3.22-.015-4.834.076-1.875.091-3.54.519-4.91 1.89-1.374 1.374-1.799 3.035-1.89 4.91-.09 1.617-.076 3.22-.076 4.834 0 1.614-.015 3.22.076 4.834.091 1.875.519 3.54 1.89 4.91 1.374 1.374 3.035 1.799 4.91 1.89 1.617.09 3.22.076 4.834.076 1.617 0 3.22.015 4.834-.076 1.875-.091 3.539-.519 4.91-1.89 1.374-1.374 1.799-3.035 1.89-4.91.093-1.614.076-3.217.076-4.834zm-2.578 6.908a3.723 3.723 0 01-.885 1.342c-.413.413-.809.67-1.342.885-1.54.612-5.2.474-6.908.474-1.708 0-5.37.138-6.911-.471a3.723 3.723 0 01-1.342-.885 3.746 3.746 0 01-.885-1.342c-.609-1.544-.471-5.203-.471-6.911 0-1.708-.138-5.37.471-6.911.214-.533.472-.932.885-1.342.413-.41.809-.67 1.342-.885 1.54-.609 5.203-.471 6.911-.471 1.708 0 5.37-.138 6.911.471.533.214.932.472 1.342.885.413.413.67.809.885 1.342.61 1.54.471 5.203.471 6.911 0 1.708.138 5.367-.474 6.908z" fill="#1F2526"/></svg>