<svg width="257" height="15" fill="none" xmlns="http://www.w3.org/2000/svg"><path fill-rule="evenodd" clip-rule="evenodd" d="M98.707.058L93 14.325h1.63c.175 0 .35-.058.466-.175.117-.116.233-.232.233-.349l1.048-2.737c.641-.233 1.573-.582 2.796-1.223 1.164-.582 2.387-.699 3.202-.699l1.806 4.659c.058.175.116.291.232.35.117.116.292.116.466.116h1.631L100.803 0h-2.096v.058zm.724 3.22c.053-.132.113-.278.15-.425.023-.094.056-.198.09-.308a4.75 4.75 0 00.142-.507c.043.143.083.28.12.41.116.398.214.739.346 1.046l1.514 3.96c-.932.058-2.155.233-3.32.873-.203.117-.407.219-.596.313-.19.095-.364.182-.51.27l1.98-5.416c.022-.065.052-.138.084-.216zM72.964 7.704c-.291-.291-.699-.524-1.107-.699-.407-.175-.815-.35-1.223-.466-.203-.058-.407-.13-.611-.204-.204-.072-.408-.145-.611-.203-.408-.117-.757-.292-1.107-.466-.29-.175-.582-.408-.757-.64a1.611 1.611 0 01-.291-.933c0-.29.058-.582.175-.815.116-.233.29-.466.466-.64.233-.175.465-.35.815-.466a3.39 3.39 0 011.106-.175c.466 0 .816.058 1.165.175.291.116.582.233.815.35.233.116.408.232.582.349.175.116.292.174.408.174.117 0 .233 0 .291-.058l.233-.233.524-.99c-.524-.466-1.106-.815-1.747-1.106-.815-.35-1.572-.524-2.329-.524-.699 0-1.34.116-1.922.35-.582.232-1.048.523-1.397.873-.408.349-.699.815-.874 1.28-.174.466-.29.99-.29 1.456 0 .641.116 1.165.29 1.63.175.409.466.816.757 1.107.292.292.7.524 1.107.7.407.174.815.349 1.223.465.203.058.407.131.611.204.204.073.408.145.612.204.407.116.756.29 1.106.465.291.175.582.408.757.641.175.233.291.582.291 1.048 0 .35-.058.699-.175.99-.116.291-.29.582-.524.757a2.193 2.193 0 01-.873.524c-.35.117-.757.175-1.165.175-.524 0-.99-.058-1.397-.233-.144-.072-.288-.134-.427-.194a4.775 4.775 0 01-.563-.272 4.29 4.29 0 01-.344-.234 2.465 2.465 0 00-.355-.232c-.175-.174-.35-.233-.466-.233-.117 0-.175 0-.291.059-.117.058-.175.116-.233.174l-.582.99c.29.291.582.524.873.757.35.233.699.408 1.107.583.407.174.815.29 1.222.349.408.116.874.117 1.34.117.757 0 1.455-.117 2.038-.35a4.555 4.555 0 001.514-.99c.407-.408.699-.873.932-1.456.233-.524.349-1.164.349-1.747 0-.582-.117-1.106-.291-1.514a8.893 8.893 0 00-.757-.873zM2.096.308H0v14.325h8.152v-1.805H2.096V.308zm38.492 9.725v.524c0 .175 0 .35.059.583L32.552.658c-.084-.126-.167-.191-.23-.24a.675.675 0 01-.06-.051c-.117-.059-.234-.059-.409-.059h-1.106v14.267h1.864V4.326c0-.174 0-.349-.059-.524l8.095 10.424c.116.116.232.233.349.291a.842.842 0 00.407.117h1.049V.307h-1.864v9.725zM56.66.833c.815.349 1.572.815 2.213 1.455.64.64 1.106 1.398 1.456 2.213.35.874.524 1.864.524 2.912 0 1.048-.175 2.038-.524 2.911-.35.874-.816 1.63-1.456 2.271-.582.64-1.34 1.107-2.213 1.456-.873.35-1.863.524-2.911.524H48.39V.308h5.358c1.048 0 2.038.175 2.911.525zm.699 10.598a4.8 4.8 0 00.99-1.689c.233-.64.35-1.398.35-2.33 0-.815-.117-1.572-.35-2.27a5.385 5.385 0 00-.99-1.689 4.653 4.653 0 00-1.572-1.048c-.583-.233-1.282-.35-2.038-.35h-3.262v10.773h3.261c.758 0 1.456-.116 2.039-.35.64-.232 1.164-.581 1.572-1.047zm31.503.174c.058-.058.117-.058.175-.058.072 0 .144.022.243.053.062.02.134.041.223.064l.815.931a5.883 5.883 0 01-2.155 1.63c-.815.408-1.863.583-3.028.583-.99 0-1.98-.175-2.795-.524a6.28 6.28 0 01-2.154-1.514c-.641-.64-1.049-1.456-1.398-2.33a9.62 9.62 0 01-.466-2.97c0-1.106.175-2.095.524-2.969.35-.932.816-1.689 1.456-2.33.64-.64 1.34-1.164 2.213-1.513.873-.35 1.805-.524 2.853-.524.99 0 1.864.174 2.679.524.757.35 1.456.815 2.038 1.34l-.699.989-.174.175c-.059.058-.175.058-.292.058-.174 0-.29-.058-.466-.175a2.024 2.024 0 00-.64-.407c-.083-.033-.17-.071-.262-.111a6.362 6.362 0 00-.786-.297c-.408-.116-.932-.175-1.514-.175a5.13 5.13 0 00-1.922.35 3.94 3.94 0 00-1.514 1.048 5.076 5.076 0 00-.99 1.747c-.233.699-.35 1.456-.35 2.33 0 .873.117 1.63.35 2.328.233.7.582 1.281.99 1.747a3.94 3.94 0 001.514 1.049c.582.232 1.165.349 1.864.349.407 0 .757 0 1.106-.058.35-.059.64-.117.932-.233l.178-.086c.192-.09.402-.19.579-.322.233-.175.465-.35.698-.582.03-.03.059-.044.088-.058a.303.303 0 00.087-.059zM118.037.658a3.894 3.894 0 011.688.873c.408.408.757.874.99 1.456.233.524.35 1.106.35 1.805 0 .699-.117 1.281-.35 1.864a3.738 3.738 0 01-1.048 1.455c-.466.408-.99.7-1.689.932-.699.233-1.456.35-2.329.35h-2.213v5.24h-2.096V.367h4.309c.932 0 1.689.058 2.388.29zm0 6.23c.291-.29.524-.582.64-.931.175-.35.233-.757.175-1.165 0-.873-.291-1.514-.815-2.038-.525-.524-1.34-.757-2.446-.757h-2.213v5.707h2.213c.524 0 .99-.117 1.397-.233.408-.117.757-.35 1.049-.582zm9.783-6.58h-2.155v14.267h2.155V.308zm15.78 10.25V.307h1.864v14.325h-1.048a.841.841 0 01-.408-.116c-.116-.058-.233-.175-.349-.291l-8.095-10.424c.059.175.059.35.059.524V14.575h-1.864V.308h1.107c.174 0 .291 0 .407.059a.687.687 0 00.062.051c.062.049.146.114.229.24l8.095 10.482c-.059-.233-.059-.408-.059-.583zm43.092-8.27c-.64-.64-1.397-1.106-2.213-1.455-.873-.35-1.863-.525-2.911-.525h-5.358v14.267h5.358c1.048 0 2.038-.174 2.911-.524.874-.35 1.631-.815 2.213-1.456.641-.64 1.107-1.397 1.456-2.27.349-.874.524-1.864.524-2.912 0-1.048-.175-2.038-.524-2.912-.349-.815-.815-1.572-1.456-2.213zm-.524 7.454a4.795 4.795 0 01-.99 1.689c-.407.466-.932.815-1.572 1.048-.582.233-1.281.35-2.038.35h-3.261V2.054h3.261c.757 0 1.456.117 2.038.35a4.657 4.657 0 011.572 1.048 5.38 5.38 0 01.99 1.689c.233.698.35 1.455.35 2.27-.059.932-.175 1.69-.35 2.33zm7.629-9.434h2.154v14.267h-2.154V.308zm14.092 8.095c.524-.117.99-.35 1.456-.583a5.222 5.222 0 001.106-.873c.291-.35.524-.757.699-1.165.175-.466.233-.932.233-1.397 0-.583-.117-1.165-.291-1.63-.233-.467-.524-.933-.99-1.282-.408-.35-.99-.64-1.631-.815-.64-.175-1.456-.291-2.387-.291h-4.135v14.266h2.097V8.752h1.397c.291 0 .466.058.582.116.117.059.233.175.35.35l3.552 4.95a.93.93 0 00.815.466h1.864l-4.018-5.59c-.175-.292-.408-.525-.699-.641zm-1.922-1.223h-1.921V1.939h1.979c1.107 0 1.922.233 2.446.64.524.408.815 1.049.815 1.864 0 .407-.058.757-.232 1.106-.117.35-.35.64-.641.874-.291.233-.641.407-1.048.582a5.102 5.102 0 01-1.398.175zm18.518 1.048h-5.416v4.659h6.755v1.746h-8.851V.309h8.851v1.747h-6.755V6.54h5.416v1.689zm15.781 3.32c-.059 0-.117 0-.175.057a.302.302 0 01-.087.059.295.295 0 00-.088.058c-.233.233-.466.408-.699.582-.176.133-.386.231-.578.322h-.001l-.178.086c-.291.116-.582.175-.931.233-.35.058-.699.058-1.107.058a4.828 4.828 0 01-1.863-.35 3.938 3.938 0 01-1.514-1.048 5.073 5.073 0 01-.99-1.747c-.233-.698-.35-1.455-.35-2.329 0-.873.117-1.63.35-2.33a5.073 5.073 0 01.99-1.746 3.937 3.937 0 011.514-1.048 5.13 5.13 0 011.922-.35c.582 0 1.106.059 1.514.175.291.083.553.197.786.297h.002c.091.04.178.078.26.11.291.117.524.292.64.408.175.117.291.175.466.175.117 0 .233 0 .291-.058l.175-.175.699-.99a8.25 8.25 0 00-2.038-1.34c-.816-.349-1.689-.523-2.679-.523-1.048 0-1.98.174-2.853.524-.874.35-1.573.873-2.213 1.514-.641.64-1.107 1.397-1.456 2.33-.349.873-.524 1.862-.524 2.969 0 1.106.175 2.038.466 2.97.349.873.757 1.688 1.397 2.329a6.29 6.29 0 002.155 1.514c.815.35 1.805.524 2.795.524 1.165 0 2.213-.175 3.028-.582a5.893 5.893 0 002.155-1.63l-.816-.932c-.089-.023-.16-.045-.222-.064a.846.846 0 00-.243-.053zm4.775-9.434V.308h11.239v1.806h-4.542v12.52h-2.097V2.114h-4.6zM18.576.134l-2.387 6.114H15.49c-2.563 0-3.902.699-5.066 1.34-.25.141-.476.24-.695.335-.14.061-.276.12-.412.188v1.922c.757-.233 1.398-.582 1.922-.873l.092-.047c1.015-.508 2.004-1.003 3.926-1.06h.29l-2.561 6.58h1.863c.175 0 .35-.058.466-.174.117-.117.233-.233.233-.35l2.155-5.823.174.058c.757.233 1.34.524 1.922.816l.144.072c.775.389 1.623.815 2.884 1.034h.116l1.398 3.785c.058.117.175.233.291.35.117.116.291.116.466.116h1.863L21.08.134h-2.504zm3.086 7.92c-.407-.175-.815-.35-1.106-.525-.082-.04-.164-.082-.248-.125-.518-.263-1.097-.556-1.849-.807l-.232-.058 1.514-4.484c.058-.058.174-.058.174 0l2.155 6.231-.408-.233zm137.898-.542c1.864-1.572 3.902-1.572 4.018-1.572v7.162c-.757.524-1.514.932-2.329 1.165-.815.291-1.689.408-2.679.408-1.164 0-2.213-.175-3.144-.525a6.706 6.706 0 01-2.388-1.514 7.005 7.005 0 01-1.514-2.329 8.397 8.397 0 01-.524-2.97c0-1.106.175-2.096.524-2.97.349-.931.815-1.688 1.456-2.329a6.45 6.45 0 012.329-1.514c.874-.35 1.922-.524 3.028-.524.583 0 1.107.058 1.573.116.465.059.931.175 1.339.35.407.175.815.35 1.164.582.35.233.699.466.99.757l-.582.932c-.058.175-.175.233-.349.291-.175.058-.35 0-.524-.116-.175-.117-.35-.233-.583-.35-.233-.116-.466-.233-.757-.35-.291-.116-.582-.232-.99-.29a8.17 8.17 0 00-1.339-.117c-.757 0-1.456.175-2.096.408a5.376 5.376 0 00-1.631 1.106c-.466.524-.815 1.048-1.048 1.747a7.138 7.138 0 00-.349 2.271c0 .874.116 1.63.349 2.33.233.698.582 1.28 1.048 1.747.466.465 1.048.873 1.689 1.106.64.233 1.397.35 2.213.35.291 0 .582 0 .873-.059.291-.058.583-.116.815-.175.292-.058.525-.116.757-.233l.699-.349V8.211c-.349.174-.64.35-.99.64-1.514 1.281-3.202 1.34-3.494 1.34h-.058l.058-.874.059-.873h.009c.126.002 1.252.025 2.378-.932z" fill="#1F2526"/></svg>