<svg width="257" height="16" fill="none" xmlns="http://www.w3.org/2000/svg"><path fill-rule="evenodd" clip-rule="evenodd" d="M98.707.422L93 14.71h1.63a.66.66 0 00.466-.175c.117-.117.233-.234.233-.35l1.048-2.74c.641-.234 1.573-.584 2.796-1.225 1.164-.584 2.387-.7 3.202-.7l1.806 4.665c.058.175.116.291.232.35.117.116.292.116.466.116h1.631L100.803.364h-2.096v.058zm.64 3.44c.022-.065.052-.138.084-.216.053-.132.113-.278.15-.425.023-.094.056-.198.09-.308.052-.161.107-.335.142-.508.042.139.08.271.117.398v.002l.001.003.001.003v.003h.001c.116.4.214.74.346 1.049l1.514 3.965c-.932.058-2.155.233-3.32.874-.203.117-.407.22-.596.314-.19.095-.364.182-.51.27l1.98-5.423zM72.965 8.079c-.291-.291-.699-.525-1.107-.7-.407-.174-.815-.35-1.223-.466-.203-.058-.407-.131-.611-.204-.204-.073-.408-.146-.611-.204-.408-.117-.757-.292-1.107-.467-.291-.175-.582-.408-.757-.641a1.615 1.615 0 01-.291-.933c0-.292.058-.583.175-.817a2.59 2.59 0 01.466-.64c.233-.176.465-.35.815-.467.35-.117.699-.175 1.106-.175.466 0 .816.058 1.165.175.291.116.582.233.815.35.233.116.408.233.582.35.175.116.292.174.408.174.116 0 .233 0 .291-.058l.233-.233.524-.992c-.524-.466-1.106-.816-1.747-1.108-.815-.35-1.572-.524-2.329-.524-.699 0-1.34.116-1.922.35-.582.233-1.048.524-1.397.874-.408.35-.699.817-.874 1.283-.174.467-.29.991-.29 1.458 0 .641.116 1.166.29 1.633.175.408.466.816.757 1.108.292.291.7.524 1.107.7.407.174.815.35 1.223.466.203.058.407.131.611.204.204.073.408.146.612.204.407.117.756.292 1.106.467.291.174.582.408.757.641.175.233.291.583.291 1.05 0 .35-.058.7-.175.99-.116.293-.29.584-.524.759a2.194 2.194 0 01-.873.525 3.75 3.75 0 01-1.165.175c-.524 0-.99-.059-1.397-.233a8.163 8.163 0 00-.427-.195c-.2-.086-.392-.17-.563-.272-.134-.08-.243-.16-.344-.235a2.452 2.452 0 00-.355-.231c-.175-.175-.35-.234-.466-.234-.117 0-.175 0-.291.059a.803.803 0 00-.233.175l-.582.99c.29.292.582.526.873.759.35.233.699.408 1.107.583a4.83 4.83 0 001.222.35c.408.117.874.117 1.34.117.757 0 1.455-.117 2.038-.35a4.554 4.554 0 001.514-.992c.407-.408.699-.874.932-1.457.233-.525.349-1.167.349-1.75s-.117-1.108-.291-1.516a8.902 8.902 0 00-.757-.875zM2.096.673H0v14.345h8.152V13.21H2.096V.673zm38.492 9.738v.525c0 .175 0 .35.059.583L32.552 1.022a.956.956 0 00-.23-.24.704.704 0 01-.061-.051c-.116-.058-.233-.058-.408-.058h-1.106v14.286h1.863V4.696c0-.175 0-.35-.058-.525l8.095 10.438c.116.117.232.234.349.292a.84.84 0 00.407.117h1.049V.672h-1.864v9.738zM56.66 1.197c.815.35 1.572.817 2.213 1.458.64.642 1.106 1.4 1.456 2.216.35.875.524 1.866.524 2.916 0 1.05-.175 2.04-.524 2.915-.35.875-.816 1.633-1.456 2.275-.582.641-1.34 1.107-2.213 1.457-.873.35-1.863.525-2.911.525H48.39V.673h5.358c1.048 0 2.038.175 2.911.524zm.699 10.613c.407-.466.757-.991.99-1.69.233-.642.35-1.4.35-2.333a7.16 7.16 0 00-.35-2.274 5.396 5.396 0 00-.99-1.692 4.653 4.653 0 00-1.572-1.05c-.583-.232-1.282-.349-2.038-.349h-3.262V13.21h3.261c.758 0 1.456-.117 2.039-.35.64-.233 1.164-.583 1.572-1.05zm31.503.175c.058-.058.117-.058.175-.058.072 0 .144.022.243.053.062.019.134.041.223.063l.815.934a5.885 5.885 0 01-2.155 1.632c-.815.408-1.863.583-3.028.583-.99 0-1.98-.175-2.795-.524a6.28 6.28 0 01-2.154-1.517c-.641-.641-1.049-1.457-1.398-2.332a9.645 9.645 0 01-.466-2.974c0-1.108.175-2.1.524-2.974.35-.933.816-1.691 1.456-2.332.64-.642 1.34-1.167 2.213-1.517.873-.35 1.805-.524 2.853-.524.99 0 1.864.175 2.679.524.757.35 1.456.817 2.038 1.342l-.699.99-.174.176c-.059.058-.175.058-.292.058-.174 0-.29-.058-.466-.175a2.024 2.024 0 00-.64-.408c-.083-.033-.17-.07-.262-.11a6.35 6.35 0 00-.786-.298c-.408-.117-.932-.175-1.514-.175-.699 0-1.34.117-1.922.35a3.94 3.94 0 00-1.514 1.05 5.085 5.085 0 00-.99 1.749c-.233.7-.35 1.458-.35 2.332 0 .875.117 1.633.35 2.333.233.7.582 1.283.99 1.75.408.466.932.816 1.514 1.049.582.233 1.165.35 1.864.35.407 0 .757 0 1.106-.059.35-.058.64-.116.932-.233a9.29 9.29 0 01.178-.085c.192-.091.402-.19.579-.323.233-.175.465-.35.698-.583.03-.03.059-.044.088-.059.029-.014.058-.029.087-.058zm29.175-10.963a3.892 3.892 0 011.688.875c.408.408.757.875.99 1.458.233.525.35 1.108.35 1.808s-.117 1.283-.35 1.866a3.743 3.743 0 01-1.048 1.457c-.466.409-.99.7-1.689.933-.699.234-1.456.35-2.329.35h-2.213v5.248h-2.096V.732h4.309c.932 0 1.689.058 2.388.291zm0 6.24c.291-.292.524-.583.64-.933.175-.35.233-.758.175-1.166 0-.875-.291-1.517-.815-2.041-.525-.525-1.34-.758-2.446-.758h-2.213v5.714h2.213c.524 0 .99-.116 1.397-.233.408-.117.757-.35 1.049-.583zm9.783-6.59h-2.155V14.96h2.155V.673zm15.78 10.264V.673h1.864v14.345h-1.048c-.175 0-.291-.059-.408-.117-.116-.058-.233-.175-.349-.292l-8.095-10.438c.059.175.059.35.059.525V14.96h-1.864V.673h1.107c.174 0 .291 0 .407.058.017.016.038.033.062.052.062.048.146.114.229.24l8.095 10.496c-.059-.233-.059-.408-.059-.583zm43.092-8.28c-.64-.642-1.397-1.109-2.213-1.459-.873-.35-1.863-.524-2.911-.524h-5.358v14.286h5.358c1.048 0 2.038-.175 2.911-.525.874-.35 1.631-.816 2.213-1.457.641-.642 1.107-1.4 1.456-2.275.349-.874.524-1.866.524-2.915 0-1.05-.175-2.041-.524-2.916-.349-.816-.815-1.574-1.456-2.216zm-.524 7.463a4.802 4.802 0 01-.99 1.691c-.407.467-.932.817-1.572 1.05-.582.233-1.281.35-2.038.35h-3.261V2.422h3.261c.757 0 1.456.117 2.038.35a4.657 4.657 0 011.572 1.05c.408.466.757 1.05.99 1.69.233.7.35 1.458.35 2.275-.059.933-.175 1.69-.35 2.332zm7.629-9.446h2.154v14.286h-2.154V.673zm14.092 8.105c.524-.117.99-.35 1.456-.583a5.223 5.223 0 001.106-.875c.291-.35.524-.758.699-1.166.175-.467.233-.933.233-1.4a4.81 4.81 0 00-.291-1.632c-.233-.467-.524-.933-.99-1.283-.408-.35-.99-.642-1.631-.817-.64-.175-1.456-.291-2.387-.291h-4.135v14.287h2.097v-5.89h1.397c.291 0 .466.058.582.117.117.058.233.174.35.35l3.552 4.956a.93.93 0 00.815.466h1.864l-4.018-5.598c-.175-.291-.408-.524-.699-.641zm-1.922-1.225h-1.921V2.305h1.979c1.107 0 1.922.234 2.446.642.524.408.815 1.05.815 1.866 0 .408-.058.758-.232 1.108-.117.35-.35.641-.641.874-.291.234-.641.409-1.048.584a5.095 5.095 0 01-1.398.174zm18.518 1.05h-5.416v4.665h6.755v1.75h-8.851V.672h8.851v1.749h-6.755v4.49h5.416v1.691zm15.781 3.324c-.059 0-.117 0-.175.058-.029.03-.058.044-.087.059a.295.295 0 00-.088.058c-.233.233-.466.408-.699.583-.176.132-.386.231-.578.322l-.094.045-.085.041c-.291.117-.582.175-.931.233-.35.059-.699.059-1.107.059a4.817 4.817 0 01-1.863-.35 3.936 3.936 0 01-1.514-1.05 5.081 5.081 0 01-.99-1.75c-.233-.699-.35-1.457-.35-2.332 0-.874.117-1.632.35-2.332.233-.7.582-1.283.99-1.75a3.937 3.937 0 011.514-1.05 5.123 5.123 0 011.922-.35c.582 0 1.106.06 1.514.176.291.083.554.197.786.297.092.04.179.078.262.111.291.117.524.292.64.408.175.117.291.175.466.175.117 0 .233 0 .291-.058l.175-.175.699-.991a8.25 8.25 0 00-2.038-1.342c-.816-.35-1.689-.524-2.679-.524-1.048 0-1.98.175-2.853.524-.874.35-1.573.875-2.213 1.517-.641.641-1.107 1.4-1.456 2.332-.349.875-.524 1.866-.524 2.974s.175 2.04.466 2.974c.349.875.757 1.691 1.397 2.332a6.291 6.291 0 002.155 1.517c.815.35 1.805.524 2.795.524 1.165 0 2.213-.175 3.028-.583a5.894 5.894 0 002.155-1.633l-.816-.933a3.805 3.805 0 01-.222-.063.847.847 0 00-.243-.053zm4.775-9.447V.673h11.239V2.48h-4.542v12.538h-2.097V2.48h-4.6zM18.576.498L16.189 6.62H15.49c-2.563 0-3.902.7-5.066 1.342a6.776 6.776 0 01-.695.336c-.14.06-.276.12-.412.188v1.925c.757-.233 1.398-.583 1.922-.875l.092-.046c1.015-.51 2.004-1.005 3.926-1.062h.291l-2.562 6.59h1.863a.66.66 0 00.466-.176c.117-.116.233-.233.233-.35l2.155-5.83.174.058c.757.233 1.34.525 1.922.816l.144.072c.775.39 1.623.816 2.884 1.036h.116l1.398 3.79c.058.117.175.234.291.35.117.117.291.117.466.117h1.863L21.08.498h-2.504zm3.086 7.93c-.407-.175-.815-.35-1.106-.525-.082-.04-.164-.082-.249-.125-.517-.263-1.096-.557-1.847-.808l-.233-.058 1.514-4.49c.058-.058.174-.058.174 0l2.155 6.24-.408-.234zm137.898-.542c1.864-1.574 3.902-1.574 4.018-1.574v7.172c-.757.525-1.514.933-2.329 1.166-.815.292-1.689.409-2.679.409-1.164 0-2.213-.175-3.144-.525a6.705 6.705 0 01-2.388-1.516 7.015 7.015 0 01-1.514-2.333A8.419 8.419 0 01151 7.711c0-1.108.175-2.1.524-2.974.349-.933.815-1.69 1.456-2.332a6.45 6.45 0 012.329-1.516c.874-.35 1.922-.525 3.028-.525.583 0 1.107.058 1.573.116a5.04 5.04 0 011.339.35c.407.175.815.35 1.164.583.35.234.699.467.99.758l-.582.933c-.058.175-.175.234-.349.292-.175.058-.35 0-.524-.117a5.153 5.153 0 00-.583-.35c-.233-.116-.466-.233-.757-.35-.291-.116-.582-.233-.99-.29a8.159 8.159 0 00-1.339-.118c-.757 0-1.456.175-2.096.409a5.376 5.376 0 00-1.631 1.108c-.466.524-.815 1.05-1.048 1.749a7.157 7.157 0 00-.349 2.274c0 .875.116 1.633.349 2.333.233.7.582 1.282 1.048 1.749.466.466 1.048.875 1.689 1.108.64.233 1.397.35 2.213.35.291 0 .582 0 .873-.058.291-.059.582-.117.815-.175.292-.059.525-.117.757-.234l.699-.35V8.587c-.349.175-.64.35-.99.641-1.514 1.283-3.202 1.341-3.494 1.341h-.058l.058-.874.059-.875h.009c.126.003 1.252.026 2.378-.933z" fill="#49575B"/></svg>
