<svg width="65" height="9" fill="none" xmlns="http://www.w3.org/2000/svg"><path d="M31.631 5.68a6.085 6.085 0 01-.791-.21c-2.13-.897-4.078-2.302-6.39-2.572-4.23-.508-7.82 2.991-11.99 3.829C8.352 7.505 4.214 5.65 2.145 2.09c-.274-.509-1.126-.24-1.278.269-.092.538.03 1.107.365 1.555C4.305 8.611 11.365 9.3 16.477 6.966c2.16-1.017 4.23-2.512 6.603-2.512 2.77-.06 5.113 1.824 7.73 2.662l.639.18.09.03h.031l.518.119c2.617.568 5.781.18 8.368-.449C45.69 5.74 57.314 3.078 64.404 1.403c.183-.06.274-.24.213-.389-.03-.12-.152-.21-.304-.21-15.154.958-25.074 6.282-32.682 4.876z" fill="#9BA99C"/></svg>